<?xml version="1.0" standalone="no"?>
<!DOCTYPE svg PUBLIC "-//W3C//DTD SVG 20010904//EN"
 "http://www.w3.org/TR/2001/REC-SVG-20010904/DTD/svg10.dtd">
<svg version="1.0" xmlns="http://www.w3.org/2000/svg"
 width="100.000000pt" height="100.000000pt" viewBox="0 0 100.000000 100.000000"
 preserveAspectRatio="xMidYMid meet">
<metadata>
Created by potrace 1.14, written by Peter Selinger 2001-2017
</metadata>
<g transform="translate(0.000000,100.000000) scale(0.100000,-0.100000)"
fill="#000000" stroke="none">
<path d="M919 940 c-1 -3 -1 -9 0 -13 1 -8 -6 -11 -65 -27 -34 -8 -69 -38
-207 -177 -164 -164 -166 -166 -178 -141 -22 50 -92 67 -149 38 -31 -16 -42
-30 -58 -72 l-20 -52 -65 -12 c-76 -14 -105 -32 -141 -88 -31 -48 -40 -92 -32
-150 16 -107 145 -223 251 -225 56 -2 109 21 151 63 39 39 48 57 68 147 4 17
17 31 37 39 53 22 89 59 89 90 0 31 -15 40 -64 40 -18 0 -36 3 -40 7 -4 4 80
94 186 200 139 139 199 193 216 193 13 0 41 17 65 40 35 33 40 42 31 57 -6 10
-24 21 -40 24 -23 5 -25 7 -6 8 12 0 22 5 22 10 0 9 -49 10 -51 1z m2 -80
c-13 -11 -31 -20 -42 -20 -10 0 -110 -92 -234 -215 -119 -118 -218 -215 -220
-215 -26 0 17 51 196 231 187 189 216 214 258 225 63 17 70 16 42 -6z m-503
-281 c37 -23 33 -54 -15 -100 -23 -24 -43 -47 -43 -51 0 -4 13 -22 29 -40 27
-29 32 -32 51 -20 14 9 26 10 40 2 10 -5 32 -10 49 -10 43 0 30 -25 -23 -45
-49 -19 -72 -52 -82 -116 -5 -34 -17 -53 -49 -85 -84 -81 -195 -65 -284 43
-56 68 -64 148 -21 218 26 43 65 64 126 71 58 6 81 18 89 46 16 56 30 80 54
92 28 15 48 14 79 -5z"/>
<path d="M287 383 c-13 -12 -7 -23 34 -64 33 -33 43 -38 55 -28 16 13 13 17
-37 71 -26 28 -40 34 -52 21z"/>
<path d="M202 298 c-9 -9 -3 -21 29 -54 39 -40 69 -48 69 -20 0 11 -70 86 -81
86 -3 0 -10 -5 -17 -12z"/>
<path d="M344 169 c-10 -17 13 -36 27 -22 12 12 4 33 -11 33 -5 0 -12 -5 -16
-11z"/>
<path d="M204 129 c-10 -17 13 -36 27 -22 12 12 4 33 -11 33 -5 0 -12 -5 -16
-11z"/>
<path d="M284 129 c-10 -17 13 -36 27 -22 12 12 4 33 -11 33 -5 0 -12 -5 -16
-11z"/>
<path d="M880 930 c0 -5 5 -10 10 -10 6 0 10 5 10 10 0 6 -4 10 -10 10 -5 0
-10 -4 -10 -10z"/>
<path d="M816 921 c-4 -5 -2 -12 3 -15 5 -4 12 -2 15 3 4 5 2 12 -3 15 -5 4
-12 2 -15 -3z"/>
<path d="M850 920 c0 -5 5 -10 10 -10 6 0 10 5 10 10 0 6 -4 10 -10 10 -5 0
-10 -4 -10 -10z"/>
</g>
</svg>
